<svg xmlns="http://www.w3.org/2000/svg" width="669" height="251.437"><g data-name="グループ 551"><path data-name="パス 4977" d="M21.415 0H669l-21.415 46.949H0Z" fill="#003155"/><g data-name="グループ 467" fill="#fff"><g data-name="グループ 465"><path data-name="パス 4963" d="m99.106 8.191-1.586 5.677H82.611a24.709 24.709 0 0 1 5.917 7.614 27.762 27.762 0 0 0-6.262 4.259 22.768 22.768 0 0 0-5.447-8.044l5.573-3.829H66.26l-3.427 12.26c-2.428 8.69-5.282 13.9-8.319 17.724a12.207 12.207 0 0 0-5.254-2.323c4.126-5.377 5.713-11.056 7.011-15.7l4.928-17.638H76.76l1.286-4.6 6.792.259c.644.043 1.081.043.937.559-.132.474-.562.6-1.334.861l-.812 2.921h15.477ZM72.344 20.88l6.1.215c.612 0 1.168.043 1.024.56-.084.3-.538.516-1.166.731L74.76 35.077c-.541 1.936-.442 2.365 1.132 2.365 2.1 0 2.361 0 3.779-5.076a8.12 8.12 0 0 0 5.48 2.453c-2.647 6.969-4.53 8.388-8.9 8.388h-3.76c-6.165 0-5.638-2.667-4.893-5.334l3.078-11.013a2.2 2.2 0 0 1-.772.257c-2.175 5.593-3.45 8.905-6.445 13.208a10.671 10.671 0 0 0-4.92-2.108c3.488-4.345 5.358-10.411 6.044-13.336l6.043.9a.857.857 0 0 1 .326.086l1.394-4.991Zm18.148 3.743c1.243 2.28 2.623 9.078 2.16 13.552a32.9 32.9 0 0 0-6.7 2.709c0-7.355-.765-9.937-2.024-13.722l6.568-2.538Z"/><path data-name="パス 4964" d="m102.571 35.506.349-1.248a58.985 58.985 0 0 1-3.911 1.635 9.618 9.618 0 0 0-3.366-3.915 34.08 34.08 0 0 0 7.03-2.624h-5.157l1.2-4.3h10.145a13.1 13.1 0 0 0 1.247-1.333h-6.952l3.27-11.7h6.645l.421-1.506h-10.621l1.226-4.387h10.622l.673-2.41 6.481.43c.131 0 .469.043.349.473-.108.387-.407.517-1.321.818l-.192.688h6.3l.649-2.323 6.375.344c.262 0 .4.129.317.43-.132.473-.574.645-1.159.861l-.192.688h10.493l-1.226 4.387h-10.495l-.421 1.506h6.689l-3.268 11.699h-17.842c-.326.387-.617.644-1.247 1.333h22.823l-1.2 4.3h-3.85a24.29 24.29 0 0 0 4.356 1.938 46.541 46.541 0 0 0-4.84 4.819 28.571 28.571 0 0 1-4.458-2.668c-2.476 7.142-3.2 9.25-8.918 9.853-.767.086-4.1.128-4.8.128a12.909 12.909 0 0 0-.043-5.635 26.116 26.116 0 0 0 4.514.43c1.487 0 1.867-1.2 2.332-2.711h-6.3c-5.587 6.539-12.346 7.571-17.412 8.175a12.55 12.55 0 0 0-1.531-5.163c8.26-.3 10.832-2.152 11.947-3.012h-5.731Zm8.365-6.151a25 25 0 0 1-2.683 1.936h3.585a19.064 19.064 0 0 0 .933-1.936h-1.833Zm-.1-10.282-.385 1.377h18.934l.386-1.38h-18.933Zm19.557-2.237.384-1.377h-18.929l-.384 1.377ZM119.047 29.44c-.288.559-.507 1.033-.954 1.85h7.608a15.939 15.939 0 0 1-1.864-1.936h-4.635l-.155.086Zm6.732-18.929h-6.3l-.421 1.506h6.3Z"/><path data-name="パス 4965" d="M162.74 13.445c.194.034.642.134.511.6s-.752.5-.99.5l-1.238 1.637a43.8 43.8 0 0 0 7.471-1.571l-1.382 4.949c-5.305.869-5.945.969-10.084 1.437-.6.7-.71.835-1.97 2.306a7.643 7.643 0 0 1 3.143-.668 4.28 4.28 0 0 1 4.166 2.841c5.691-2.372 6.334-2.606 7.788-3.309l.509 5.349c-4.1 1.17-6.264 1.871-8.5 2.707-.2.97-.458 2.006-.739 3.009-.42 1.5-.75 2.44-1.036 3.343-1.069-.067-2.291-.067-3.378-.067a15.806 15.806 0 0 0-1.989.067 33.515 33.515 0 0 0 1.3-3.811c-2.461 1.27-4.994 2.674-5.377 4.045-.42 1.5 3.018 1.6 4.75 1.6a43.7 43.7 0 0 0 11.329-1.638 25.217 25.217 0 0 0-2.13 5.315 46.556 46.556 0 0 1-9.75.969c-2.276 0-11.11 0-9.456-5.916 1.1-3.946 7.429-7.254 11.664-9.16-.132-1.471-1.265-1.672-2.081-1.672-3.533 0-6.958 3.744-9.657 6.719l-3.985-2.641a108.022 108.022 0 0 0 9.41-8.992 77.897 77.897 0 0 1-4.8.033l1.389-4.846c1.026.1 2.949.267 5.259.267.985 0 1.392 0 1.946-.033a34.848 34.848 0 0 0 3.024-4.379l4.884 1Z"/><path data-name="パス 4966" d="m192.186 13.48-1.575 5.635h-3.275l-2.921 10.455c2.748-.6 3.607-.861 4.51-1.119a38.949 38.949 0 0 0-2.092 5.765 108.028 108.028 0 0 1-12.535 2.926c-.176.473-.535 1.29-1.191 1.29-.437 0-.456-.558-.436-.946l.587-6.325c1.336-.086 2.64-.214 4.866-.515l3.222-11.53h-3.716l1.575-5.635h3.716l2.488-8.905 6.232.387a.418.418 0 0 1 .412.56c-.072.258-.649.6-1.159.86l-1.983 7.1h3.279Zm1.479 28.349-.445 1.592h-6.034l4.713-16.864h20.986l-4.713 16.864h-6.036l.445-1.592h-8.919Zm13.871-32.263a39.6 39.6 0 0 0 4.513-5.981l5.823 1.851c.238.086.465.214.392.473-.1.344-.605.6-1.321.817-.765.861-1.519 1.678-2.586 2.84h5.29l-4.343 15.525H189.99l4.339-15.53h3.979a28.748 28.748 0 0 0-1.165-3.657l5.84-2.28a30.835 30.835 0 0 1 1.766 4.948l-2.288.99h5.075Zm-3.831 28.264.493-1.765h-8.919l-.493 1.765Zm1.539-5.507.481-1.72h-8.919l-.481 1.72Zm-7.478-13.293-.542 1.936h3.979l.542-1.936Zm4.94-3.441.541-1.936h-3.979l-.541 1.936Zm4.241 3.441-.542 1.936h3.979l.542-1.936Zm4.94-3.441.541-1.936h-3.982l-.541 1.936Z"/><path data-name="パス 4967" d="M221.237 20.277a96.553 96.553 0 0 0 8.956-4.044 33.648 33.648 0 0 0-2.793-7.529l8.039-2.8a1.835 1.835 0 0 1 .748-.173c.262 0 .6.043.456.56-.085.3-.395.473-.705.646.306 1.721.929 4.344 1.3 5.979 1.349-.6 2.4-1.075 4.706-1.978a25.287 25.287 0 0 0-2.6-4.6l6.5-2.625a21.727 21.727 0 0 1 3.033 4.948 23.788 23.788 0 0 1 5.439-.688c8.438 0 9.316 5.464 8.09 9.852-2.68 9.593-13.058 11.056-19.378 11.141a26.088 26.088 0 0 0-.557-6.453 26.664 26.664 0 0 0 6.61-.344c5.7-1.161 6.328-3.4 6.676-4.646.6-2.152-.743-3.441-2.842-3.441-.525 0-1.292.086-1.7.129a27.688 27.688 0 0 1 1.065 3.7c-2.732.86-5.537 1.979-7.359 2.71a22.888 22.888 0 0 0-.96-4.388 63.248 63.248 0 0 0-5.554 2.194c2 10.067 2.266 17.552 2.043 21.166-1.3.43-7.133 2.839-8.315 3.312 1.362-8.474.331-14.8-.673-20.907-3.215 1.806-3.848 2.194-7.849 4.775l-2.382-6.5Z"/><path data-name="パス 4968" d="M293.956 4.575c.676.086 1.057.129.961.473-.132.474-.705.645-1.079.732-.3.775-.492 1.291-1.06 3.011 12.474-.516 13.841-.559 14.7-.645-.3.9-1.574 5.163-1.892 6.927-7.805-.388-11.128-.388-14.332-.345a38.1 38.1 0 0 0-1.291 4.775c1.682 3.055.4 7.658.228 8.26-1.707 6.109-7.769 13.251-14.783 16.606a19.6 19.6 0 0 0-5.146-4.431c1.456-.517 7.217-2.668 9.776-6.2a6.255 6.255 0 0 1-3.742 1.033c-.7 0-3.192 0-4.181-1.936-1.021-1.979-.546-4.776-.1-6.367 2.645-9.465 10.781-9.164 11.663-9.035.428-1.376.536-1.764.717-2.409a134.223 134.223 0 0 0-18.07 2.237l1.55-7.27c.994.043 2.679-.043 18-.9a45.6 45.6 0 0 0 .914-5.464l7.168.946Zm-16.11 21.509c-.793 2.839.433 3.613 1.22 3.613 1.355 0 2.7-1.979 3.3-4.13.276-.99.526-2.667-1.223-2.667-1.446.001-2.805 1.421-3.297 3.184Z"/><path data-name="パス 4969" d="m310.331 33.151 6.814 1.39-3.477 7.13-6.813-1.391 3.475-7.129Zm19.543-24.717-4.791 9.829-7.505 12.1-3.894-.795 4.545-12.708 4.79-9.826 6.855 1.4Z"/></g><g data-name="グループ 466"><path data-name="パス 4970" d="m370.921 20.929 1.346-4.818h6.077l.674-2.41h-5.553l1.333-4.775h5.553l1.707-6.111 5.231.214c.35 0 .863.043.731.516-.1.344-.443.645-1.164 1.033l-1.214 4.351h5.728l-1.335 4.77h-5.727l-.674 2.41h7.17l-1.345 4.82h-5.815a15.753 15.753 0 0 0 5.6 7.012 22.847 22.847 0 0 0-5.08 3.785 14.681 14.681 0 0 1-3.586-4.689l-2.465 8.819h-5.29l2.116-7.571a44.747 44.747 0 0 1-3.406 3.269 15.188 15.188 0 0 1-.97-1.376 37.311 37.311 0 0 1 .049 4.518 41.327 41.327 0 0 0-3.662.9 9.378 9.378 0 0 0 .007-1.118c-2.5.645-4.709 1.2-5.775 1.419-.093.646.018 1.033 1.9 1.033h14.734c1.836 0 3.014-.774 4.5-4.689a9.455 9.455 0 0 0 4.616 2.882c-3.393 6.668-6.173 7.228-10.633 7.228h-16.92c-1.618 0-5.242-.172-3.969-4.732l3.558-12.734h-5.633l4.4 1.463c.4.129.671.258.563.645-.156.56-.63.688-1.2.861a43.4 43.4 0 0 1-4.9 9.248 31.25 31.25 0 0 1-4.643 5.506c-1.475-1.763-2.391-2.709-3.94-3.269a30.473 30.473 0 0 0 9.155-14.454h-3.017l4.882-17.51h5.29a27.567 27.567 0 0 0 2.876-4.646l5.953.6c.175 0 .731.043.587.56-.156.56-.979.688-1.254.731-.766 1.334-1.6 2.582-1.731 2.753h7.479l-4.893 17.509h-3.367l3.285 1.075c.238.086.52.172.436.474-.109.387-.494.516-1.266.774a45.891 45.891 0 0 1-2.577 4.216c.505-.086.922-.172 1.957-.43-.077-.818-.081-1.119-.143-1.678l1.993-.56a5.577 5.577 0 0 0-.814-.688 46.622 46.622 0 0 0 6.98-7.141h-4.5Zm-11.652-3.054h-2.667l-.721 2.581h2.667Zm1.66-5.937h-2.667l-.577 2.065h2.667Zm1.555 8.518h2.751l.721-2.581h-2.755Zm.276 9.809a48.521 48.521 0 0 0 2.77-5.378h-1.268Zm1.528-16.262h2.754l.577-2.065h-2.754Z"/><path data-name="パス 4971" d="M420.376 3.675c.393 0 1.025.087.869.646-.108.387-.486.645-1.325.989-.169.6-1.61 5.292-1.682 5.55h16.744c-4.664 16.692-7.768 23.575-9.356 26.285-2.961 5.12-8 5.163-13.16 5.163a12.954 12.954 0 0 0-.949-7.4 22.367 22.367 0 0 0 5.459.646c1.705 0 2.752-.3 4.538-4.345a118.031 118.031 0 0 0 4.686-14.111h-10.1c-4.843 13.422-11.879 20.607-23.878 25.684a12.168 12.168 0 0 0-3.7-5.077 33.226 33.226 0 0 0 14.2-8.733c3.605-3.829 5.048-7.27 6.641-11.874h-13.068l1.743-6.238h13.244c1.233-4.259 1.45-5.033 2.1-7.529l6.987.344Z"/><path data-name="パス 4972" d="M456.279 13.87c.2.034.658.137.525.617s-.771.514-1.015.514l-1.271 1.68a44.97 44.97 0 0 0 7.662-1.611l-1.418 5.073c-5.44.891-6.1.993-10.342 1.474-.619.72-.726.857-2.02 2.364a7.842 7.842 0 0 1 3.223-.685 4.388 4.388 0 0 1 4.273 2.913c5.837-2.434 6.5-2.674 7.987-3.394l.522 5.485c-4.2 1.2-6.424 1.919-8.718 2.776a49.568 49.568 0 0 1-.758 3.085c-.431 1.543-.769 2.5-1.062 3.428-1.1-.069-2.35-.069-3.465-.069a16.214 16.214 0 0 0-2.04.069 34.667 34.667 0 0 0 1.336-3.908c-2.525 1.3-5.122 2.743-5.515 4.148-.43 1.543 3.094 1.645 4.872 1.645a44.841 44.841 0 0 0 11.618-1.677 25.772 25.772 0 0 0-2.184 5.449 47.646 47.646 0 0 1-10 .994c-2.335 0-11.394 0-9.7-6.066 1.13-4.044 7.618-7.438 11.962-9.392-.136-1.508-1.3-1.714-2.135-1.714-3.624 0-7.135 3.84-9.9 6.89l-4.086-2.708a110.906 110.906 0 0 0 9.649-9.22c-1.9.068-3.434.068-4.922.034l1.423-4.97c1.052.1 3.024.275 5.394.275 1.011 0 1.428 0 2-.034a35.561 35.561 0 0 0 3.1-4.49l5.009 1.029Z"/><path data-name="パス 4973" d="M483.561 12.671c.414.086.784.172.675.559s-.662.645-1.071.861l-7.981 28.56h-6.515l5.649-20.219a11.536 11.536 0 0 1-1.274 1.118 16.141 16.141 0 0 0-2.919-4.732c5.5-4.818 10.8-12.691 12.831-16.347l5.8 1.936c.282.086.54.257.431.644-.12.431-.868.6-1.6.732-1.025 1.634-1.388 2.151-4.673 6.711l.651.172Zm-5.789 22.279c1.848-.043 2.285-.043 4.988-.172 1.025-1.635 4.548-7.357 6.963-12.088h-7.345l1.708-6.109h28.288l-1.708 6.109H497.9c-.105.688-.84.817-1.408.817-1.62 2.667-5.317 8.388-6.964 10.841 2.945-.214 6.738-.645 8.273-.817a28.791 28.791 0 0 0-2.427-6.022l6.482-3.012c1.137 1.721 4.619 10.539 4.762 15.659a24.96 24.96 0 0 0-6.721 2.926 34.2 34.2 0 0 0-.65-4.087c-10.008 1.549-17.267 2.022-20.343 2.237-.375.56-.683 1.033-1.164 1.033-.437 0-.42-.215-.367-1.033l.4-6.281Zm36.255-30.543-1.635 5.85h-24.615l1.635-5.85Z"/><path data-name="パス 4974" d="M548.371 15.42c-9.224 6.409-11.562 8.517-12.713 9.507a2.833 2.833 0 0 1 1.053-.172c2.274 0 3.1 1.721 2.72 3.1-.24.86-1.954 4.646-2.171 5.42-.6 2.152.409 2.452 2.157 2.452a34.139 34.139 0 0 0 10.381-1.635 66.009 66.009 0 0 0-1.7 6.884 69.242 69.242 0 0 1-11.19 1.07c-7.826 0-7.9-3.012-7.254-5.335.192-.689 1.228-3.613 1.4-4.216.1-.344.529-1.893-.564-1.893-1.487 0-5.031 3.14-14.4 11.314l-4.195-4.862a252.5 252.5 0 0 0 22.162-17.978 80.916 80.916 0 0 1-13.566 2.237l.707-6.754c1.43.043 2.13.043 3.048.043 7.171 0 16.658-1.721 21.206-3.915l2.919 4.732ZM531.574 3.246a36.91 36.91 0 0 0 11.265 1.462 26.723 26.723 0 0 0 3.14-.129 34.761 34.761 0 0 0-2.485 6.238 23.83 23.83 0 0 1-2.036.086 64.407 64.407 0 0 1-12.295-1.076l2.411-6.581Z"/><path data-name="パス 4975" d="M589.58 8.278c-3.514 1.936-12.155 8.6-13.393 9.594a26.751 26.751 0 0 1 5.427-.645c5.946 0 11.033 3.7 8.906 11.314-2.644 9.464-12.937 13.594-20.5 13.594-5.64 0-10.492-2.194-9.038-7.4 1.191-4.26 5.946-6.883 10.493-6.883 4.11 0 7.757 2.28 7.633 6.324a8.012 8.012 0 0 0 4.3-5.077c.288-1.033 1.406-6.281-5.371-6.281-7.389 0-12.777 4.259-20.6 10.5l-3.84-5.034c5.99-3.441 18.384-12.906 22.384-16.735-1.484.3-3.066.645-12.051 1.506l.838-6.755c1.693.043 14.292.173 22.618-2.71l2.188 4.69ZM569.448 33.23a2.1 2.1 0 0 0-2.269 1.549c-.457 1.635 1.811 2.279 3.3 2.279a8.382 8.382 0 0 0 2.283-.344 3.081 3.081 0 0 0-3.314-3.484Z"/><path data-name="パス 4976" d="m598.849 30.508 6.486 2-4.085 6.974-6.485-2 4.084-6.973ZM620.295 6.97l-5.632 9.614-8.495 11.7-3.706-1.144 5.677-12.57 5.632-9.614 6.524 2.014Z"/></g></g></g><g data-name="グループ 550"><path data-name="パス 5244" d="M108.369 90.553v16.041h-6.765v-6.769h-12.7v-6.69c.836-.532 1.444-1.064 1.444-1.749a.942.942 0 0 0-1.064-.912l-12.012-.38v9.731H62.984v9.427h10.339c-1.749 2.585-6.842 7.907-13.3 12.392a40.374 40.374 0 0 1 8.819 6.31 75.26 75.26 0 0 0 11.704-11.02c1.6-.152 2.661-.228 2.661-1.292a1.255 1.255 0 0 0-.684-.988l-9.123-5.4h17.789l-7.6 5.93c5.854 5.322 7.45 7.07 9.5 9.807l-8.058-2.736a34.467 34.467 0 0 1-2.737 7.45 51.536 51.536 0 0 0-6.462-5.7l-7.526 6.92c4.257 3.573 7.983 7.3 8.971 8.211a42.409 42.409 0 0 1-16.726 15.43 21.747 21.747 0 0 1 8.895 7.07 58.757 58.757 0 0 0 14.673-14.521 47.345 47.345 0 0 1 3.421 5.4 53.958 53.958 0 0 1 8.591-6.462 49.226 49.226 0 0 0-6.234-8.287 88.1 88.1 0 0 0 4.789-9.961l.383-.08c.3.456.532.836.76 1.216a30.562 30.562 0 0 1 8.132-6.534c-1.9-2.66-6.692-9.427-12.164-13.152h8.672v7.526h7.6c-1.371 21.82-7.757 29.954-20.985 37.785a34.051 34.051 0 0 1 8.743 7.45 47.658 47.658 0 0 0 13.304-12.091c1.14 2.2 2.889 6.766 2.813 10.415a35.613 35.613 0 0 0 5.322.38c9.883 0 11.632-4.181 12.772-9.351 2.131-10.031 2.131-36.564 2.131-44.775h-12.775c.076-4.333.152-8.819.152-13.152 1.52-.76 1.749-1.064 1.749-1.52 0-.988-.76-.988-1.216-.988Zm14.294 26.229c0 6.234-.38 22.655-1.673 29.117-.836 4.026-2.964 4.026-4.485 4.026a30.232 30.232 0 0 1-6.69-.912c5.246-7.678 7.907-15.965 9.2-32.234Zm60.744 27.143a62.629 62.629 0 0 0 21.743 13.836c1.14-1.9 2.433-4.181 8.059-8.743-4.105-1.14-13.836-3.8-22.427-11.936h22.047v-9.357h-29.422V123.7h21.743V92.91h-54.13v30.79h21.363v4.025h-29.041v9.351h20.679c-8.211 8.667-16.8 11.708-21.819 13.456 4.485 2.509 7.526 7.146 8.439 8.667a82.207 82.207 0 0 0 21.742-16.341v18.246h11.024Zm-20.831-39.079v-3.953h9.807v3.953Zm9.807 6.842v3.877h-9.807v-3.877Zm11.024-6.842v-3.953h9.883v3.953Zm9.883 6.842v3.877h-9.883v-3.877Z" fill="#f5596f"/><path data-name="パス 5243" d="M229.742 92.681c-2.737 12.088-4.866 21.515-4.866 35.276a80.137 80.137 0 0 0 5.4 30.41l10.8-2.889c-.38-5.778 3.117-14.6 5.018-18.17a22.285 22.285 0 0 1-5.854-6.234c-.912 1.52-2.737 4.866-3.193 5.7a26.454 26.454 0 0 1-.532-6.082c0-15.965 2.661-24.632 4.942-31.4.532-.076 2.053-.228 2.053-.912 0-.532-.608-.76-2.053-1.292Zm22.58 19.083c2.433.152 5.4.38 9.883.38a113.2 113.2 0 0 0 23.417-2.281 114.416 114.416 0 0 1-1.067-11.556c-2.889.684-9.807 2.433-22.351 2.433-4.561 0-7.6-.228-9.883-.38Zm-.532 19.234a28.162 28.162 0 0 0-2.509 11.176c0 9.275 8.743 11.252 20.07 11.252a161.335 161.335 0 0 0 19.234-.988 50.527 50.527 0 0 1 1.137-12.393 77.417 77.417 0 0 1-18.775 2.052c-8.743 0-10.567-.532-10.567-3.877a20.647 20.647 0 0 1 1.142-5.398Zm104.608-35.884c-2.2.456-8.591 1.673-20.6 1.673-6.538 0-16.8-.38-22.959-1.673l.606 12.543a94.64 94.64 0 0 0 10.263.456c6.918 0 11.632-.3 13.532-.456a31.177 31.177 0 0 1-5.4 4.561c5.93 6.69 6.614 7.45 6.766 7.6a73.271 73.271 0 0 1 23.95-15.049Zm-38.316 29.574c-6.006 5.093-11.328 10.869-11.328 17.409 0 11.556 11.176 14.749 28.585 14.749 5.93 0 21.819-.456 32.234-3.041a86.335 86.335 0 0 1-2.2-12.62c-3.649 1.064-13.3 3.8-29.345 3.8-3.573 0-12.316-.152-15.129-1.673a2.944 2.944 0 0 1-1.52-2.433c0-1.749 2.737-5.93 6.842-9.579Zm86.972-33.531a89.569 89.569 0 0 1-1.9 14.6c-2.889.228-6.386.3-9.275.3a65.754 65.754 0 0 1-8.591-.456l.988 12.316c1.9-.076 11.556-.38 13.684-.456a123.219 123.219 0 0 1-18.55 36.948 76.2 76.2 0 0 1 11.328 5.778c8.591-13.836 14.9-28.889 19.842-44.4 7.07-.988 11.024-1.52 17.029-3.5l-1.216-12.012a54.863 54.863 0 0 1-12.543 3.882c.228-1.064 1.52-6.462 1.9-7.678.456-.076 1.52-.3 1.52-1.14 0-.684-.684-.836-1.292-.988Zm8.591 45.311c-1.977 4.866-2.813 7.146-2.813 9.959 0 11.86 15.813 12.316 24.936 12.316a69.858 69.858 0 0 0 13.76-1.292 50.956 50.956 0 0 1-.532-8.515c0-2.053.076-2.965.152-4.409a44.026 44.026 0 0 1-16.726 3.12c-8.819 0-11.024-1.216-11.024-3.649 0-1.292.988-2.585 2.053-4.105Zm18.4-34.819c.912.912 2.357 2.509 6.69 8.439a26.779 26.779 0 0 1 5.778-4.105 67.768 67.768 0 0 0-7.222-8.363Zm-12.166 28.208a93.837 93.837 0 0 1 15.433-1.216c7.222 0 10.339.836 11.708 1.216a87.825 87.825 0 0 1 .76-12.012 88.158 88.158 0 0 0-12.24-.988 82.215 82.215 0 0 0-15.661 1.6Zm19.543-33.678a54.538 54.538 0 0 1 7.07 8.059 57.707 57.707 0 0 1 5.094-3.953 44.6 44.6 0 0 0-6.994-7.983Zm50.252 5.7a17 17 0 0 0-1.6.76c.076-1.825.152-3.725.684-8.287.988-.152 1.673-.228 1.673-1.064 0-.988-.836-1.064-2.281-1.14l-11.556-.684c0 2.2.38 12.848.38 15.281a77.486 77.486 0 0 1-13.912 2.357l1.977 12.7a86.5 86.5 0 0 0 11.556-4.029v2.2c-.988 1.673-5.474 9.427-15.509 19.918l8.667 8.515c.532-.608 4.485-6.158 6.69-9.275-.076 2.357-.3 11.556-1.14 21.059l12.392-.912v-32.69c5.094-4.257 12.164-8.287 18.626-8.287 5.93 0 11.48 4.029 11.48 11.784 0 12.924-14.521 15.509-22.807 16.041 2.585 3.041 3.573 4.866 6.006 11.024 5.246-.76 28.585-4.181 28.585-27.749 0-15.281-10.872-22.2-21.591-22.2a28.042 28.042 0 0 0-15.281 4.409 14.929 14.929 0 0 1 2.585-3.725Zm99.44-9.883c-13.076 5.094-35.047 4.866-38.012 4.79l1.82 11.937c15.2-1.52 17.79-2.129 20.223-2.661-5.094 6.766-22.047 23.492-30.79 29.574l9.123 8.895c10.567-11.024 17.866-18.55 30.714-18.55 11.784 0 12.392 9.275 12.392 11.1 0 .608 0 6.462-5.018 8.971-1.749-7.146-9.2-11.176-16.345-11.176-7.907 0-14.9 4.637-14.9 12.164 0 9.2 9.5 13.076 19.31 13.076 13.152 0 29.041-7.3 29.041-24.024 0-13.456-10.643-19.994-20.983-19.994a41.255 41.255 0 0 0-9.123 1.14c1.673-1.749 13.456-13.532 18.626-16.953Zm-9.351 58.539a12.6 12.6 0 0 1-3.8.608c-2.585 0-6.842-1.14-6.842-4.029 0-1.292.608-2.737 3.193-2.737a7.465 7.465 0 0 1 7.444 6.159Z" fill="#111"/><path data-name="パス 5242" d="M96.803 226.197c-2.965 4.257-7.45 10.491-16.649 14.977v-19.843a56.471 56.471 0 0 0 5.474-2.585c.3-6.766.532-8.211.836-9.883a36.2 36.2 0 0 1-6.31 2.509v-7.982h6.31v-3.725a115.852 115.852 0 0 1 4.713 13.228c2.509-1.292 3.193-1.6 9.351-4.257a101.431 101.431 0 0 0-5.7-12.848 171.367 171.367 0 0 0 31.93-5.4 6.083 6.083 0 0 0 2.2.76.733.733 0 0 0 .836-.76 2.305 2.305 0 0 0-.608-1.216l-6.994-8.515c-14.293 5.626-23.72 6.006-37.632 5.854a39.906 39.906 0 0 1 3.041 9.427 45.333 45.333 0 0 0 6.918-.152l-8.059 2.813v-4.942h-6.31v-9.275c.76-.3 1.444-.608 1.444-1.368 0-.608-.456-.836-1.14-.912l-10.719-.836v12.392h-7.3v9.731h7.3v11.1c-2.737.684-6.234 1.52-9.351 2.053l2.053 11.1a1.2 1.2 0 0 0 .912.988c1.14 0 1.216-1.292 1.216-1.977 1.368-.38 2.889-.76 5.17-1.52v10.719c0 3.269 0 4.485-2.053 4.485a50.858 50.858 0 0 1-5.778-.608c1.444 2.889 3.193 7.6 3.269 11.1.912.076 1.6.076 2.433.076 12.316 0 12.468-5.854 12.544-8.819 4.333 3.117 5.93 4.029 7.831 6.918 4.79-2.509 10.187-7.678 14.217-12.62v14.217h10.339v-12.468c6.082 6.614 10.187 8.895 13.532 10.719 1.064-1.52 3.8-5.626 8.059-7.755-10.643-5.854-15.965-11.176-18.854-14.9h15.509v-9.655H112.54v-2.585c1.216-.456 1.825-.684 1.825-1.368 0-.836-.988-.988-1.825-1.064l-10.339-.684v5.7H86.008v9.655Zm2.048-28.889a79.07 79.07 0 0 1 4.338 12.468 56.755 56.755 0 0 1 9.351-2.509 52.873 52.873 0 0 0-3.877-13Zm20.907-4.79a88.789 88.789 0 0 1-7.218 17.334 48.066 48.066 0 0 1 9.275 4.257 93.225 93.225 0 0 0 7.6-15.357c1.064-.228 2.281-.532 2.281-1.6 0-.456-.38-.76-.912-.912Zm63.937 34.515h12.776v9.275c0 2.813-.076 3.345-3.193 3.345a46.513 46.513 0 0 1-5.626-.456c2.585 4.333 3.725 7.374 4.105 11.556 11.176.076 16.269-.456 16.269-9.351v-57.779h-60.515v31.018c0 17.182-4.029 27.369-7.983 32.386 2.737.228 8.819 1.6 12.392 4.409 4.866-8.515 6.386-18.93 7.146-24.4h13.385v20.448h11.252Zm0-17.182h12.776v7.07h-12.772Zm-11.244 7.071h-12.62v-7.07h12.62Zm11.252-23.644h12.768v6.918h-12.772Zm-11.252 6.918h-12.62v-6.918h12.62Zm90.545-2.357H249.84v-11.935c.608-.38 1.216-.684 1.216-1.216 0-.836-.912-.836-1.6-.912l-11.936-.684v14.749h-14.441v11.86h14.445v16.952h12.316V209.7h13.152c-.3 6.158-.532 11.024-2.737 15.965-.912 1.976-5.321 10.951-18.626 15.661 1.9 1.444 6.386 4.637 9.351 9.427 10.416-4.182 18.931-13.837 22.428-23.872.684-1.977 1.977-5.7 2.357-17.182h13.3v-11.86H275.84v-12.391a1.569 1.569 0 0 0 1.14-1.368c0-.532-.532-.76-1.14-.76l-12.848-.684Zm81.422 7.983c.456-.38 11.4-9.123 16.8-15.585a4.744 4.744 0 0 0 1.52.228c.608 0 1.216-.3 1.216-.988a1.761 1.761 0 0 0-.912-1.444l-10.111-7.983c-4.637 5.93-22.807 26.609-51.773 34.819a37.212 37.212 0 0 1 9.123 10.872 137.523 137.523 0 0 0 21.059-10.8v34.595h13.076Zm70.323 2.585v-23.263c.608-.152 1.444-.456 1.444-1.216s-.912-.836-1.444-.836l-12.848-.608v67.132h12.848v-35.659a112.346 112.346 0 0 1 23.72 16.877c3.345-5.17 3.725-5.7 7.146-10.643-5.626-5.626-15.281-12.164-26.533-17.866Zm58.159-18.626c.152-.532.38-1.368.608-2.2.912-.228 1.9-.608 1.9-1.52 0-.608-.456-.988-1.216-1.064l-9.655-1.368a44.781 44.781 0 0 1-5.854 15.813c3.193.38 8.287 2.813 9.2 3.269a39.217 39.217 0 0 0 1.6-2.889h7.6v4.561h-16.275v9.954h16.269v3.117h-13.684v30.03h10.643v-19.843h3.041v23.416h10.035v-12.772c1.444 2.585 2.813 5.626 2.965 8.439 9.427-.076 10.8-2.129 10.8-7.146v-22.124h-13.76v-3.117h14.521v-9.959h-14.525v-4.562h13.228v-10.035h-13.228v-5.094c.912-.3 1.749-.76 1.749-1.444 0-.912-.684-.912-1.749-.988l-10.035-.38v7.907Zm14.217 37.86h3.8v6.766c0 1.368 0 2.433-1.749 2.433a10.506 10.506 0 0 1-2.055-.224Zm17.182-37.86v45.083h10.8v-41.738c1.14-.608 1.673-.988 1.673-1.52 0-.684-.532-.912-1.673-.988Zm13.836-8.439v56.79c0 2.2-.456 2.813-3.269 2.813-.76 0-4.714-.3-5.55-.38 2.737 4.181 3.725 6.842 4.257 10.719 8.211-.456 9.351-.532 11.556-1.673 3.8-1.977 3.8-6.69 3.8-8.439v-56.556c1.064-.608 1.9-1.064 1.9-1.825 0-.836-1.368-.988-1.9-.988Zm57.246-.532a66.991 66.991 0 0 1-15.285 27.749v-7.07c.456-.076 2.2-.3 2.2-1.216 0-.456-.608-.912-1.6-1.444a115.714 115.714 0 0 0 6.006-12.7c.456 0 2.2.076 2.2-1.064 0-.38-.456-.76-1.064-.912l-11.771-3.267c-3.725 12.924-13 25.392-18.17 29.954a27.7 27.7 0 0 1 9.275 7.222c.76-.76 1.064-1.14 1.673-1.825v34.972h11.252v-40.825a33.453 33.453 0 0 1 9.047 5.474 79.174 79.174 0 0 0 9.275-13.38h.988v48.731h11.708V236.08h18.17v-10.415h-18.17v-6.614h16.649v-9.884h-16.65v-6.69h19.006v-10.339h-26.532c.836-1.977 2.281-5.55 2.433-5.93.988 0 2.281-.076 2.281-.988a1.214 1.214 0 0 0-.988-1.14Z" fill="#0bc1b7"/></g></svg>