<svg xmlns="http://www.w3.org/2000/svg" width="100" height="100"><defs><linearGradient id="b" x1=".5" x2=".5" y2="1" gradientUnits="objectBoundingBox"><stop offset="0" stop-color="#f092f9"/><stop offset="1" stop-color="#f5596f"/></linearGradient><clipPath id="a"><path data-name="長方形 141" transform="translate(138 68)" fill="#dfdfdf" d="M0 0h100v100H0z"/></clipPath></defs><g data-name="マスクグループ 3" transform="translate(-138 -68)" clip-path="url(#a)"><g transform="translate(138.003 81.037)"><path data-name="パス 221" d="M62.778 68.546a.058.058 0 0 1-.022.025 2.748 2.748 0 0 1-.135.132 2.674 2.674 0 0 1-.2.184c-.049.049-.1.091-.15.135-.065.058-.129.113-.194.172-.055.043-.107.083-.162.129s-.132.107-.2.156-.113.083-.172.123-.129.1-.2.15-.12.077-.178.12-.139.088-.208.129l-.187.113c-.071.043-.142.083-.211.123s-.132.071-.194.107-.15.071-.221.11-.132.068-.2.1-.153.065-.227.1a1.591 1.591 0 0 1-.2.083c-.074.033-.153.065-.227.095s-.139.052-.211.077-.159.055-.236.08-.139.046-.208.065l-.249.071c-.08.022-.139.039-.214.058l-.249.058c-.071.016-.139.028-.214.046s-.175.033-.263.046c-.071.013-.139.028-.211.036-.091.016-.187.03-.285.039a4.263 4.263 0 0 1-.194.022l-.324.025-.162.009a9.164 9.164 0 0 1-.5.013H46.3a8.9 8.9 0 0 0 .376-4.667h8.372c.153 0 .3-.009.447-.019a.793.793 0 0 1 .088-.009c.142-.009.282-.03.421-.052.028-.006.052-.009.077-.013.135-.022.269-.052.4-.083.006-.006.019-.006.028-.009.135-.033.276-.077.408-.12.025-.006.052-.019.077-.025.132-.046.263-.1.389-.153l.022-.009.165.068a3.86 3.86 0 0 0 3.316-.128 16.713 16.713 0 0 0 1.879 2.287Z" fill="#052780"/><path data-name="パス 222" d="M65.608 9.836v5.979a13.612 13.612 0 0 0-4.62 4.3v-5.248H4.628v46.011a5.874 5.874 0 0 0 .247 1.7c.043.151.1.3.151.446 0 0 0 .011.008.016a5.756 5.756 0 0 0 .4.824c0 .008.008.016.011.024.077.128.154.252.239.375a.093.093 0 0 1 .019.027 5.853 5.853 0 0 0 .561.68.187.187 0 0 0 .039.039c.1.1.2.2.306.3l.035.027c.1.093.213.181.324.271a.068.068 0 0 1 .016.011c.117.085.232.167.353.244a.421.421 0 0 1 .058.039c.12.074.239.143.364.213a.152.152 0 0 1 .039.019c.12.061.239.12.364.175l.05.024c.128.054.26.1.391.151.027.008.05.019.077.027.135.043.271.085.41.12a.307.307 0 0 1 .032.008c.131.035.268.061.4.085l.074.011a4.568 4.568 0 0 0 .51.062c.146.011.3.019.449.019H26.57l.9 4c.05.228.112.449.178.669H9.833c-.167 0-.329 0-.491-.011l-.162-.011-.324-.024-.2-.024a8.498 8.498 0 0 1-.287-.039c-.069-.008-.135-.024-.2-.035-.09-.016-.178-.032-.268-.046a5.257 5.257 0 0 0-.213-.046l-.252-.058-.213-.058-.244-.069c-.069-.019-.14-.043-.209-.066l-.239-.082a2.589 2.589 0 0 1-.2-.077l-.232-.093a3.002 3.002 0 0 1-.2-.085l-.221-.1c-.069-.032-.135-.066-.2-.1s-.146-.074-.217-.112-.132-.069-.194-.1-.143-.082-.213-.124l-.186-.112c-.062-.038-.14-.09-.209-.132s-.12-.082-.178-.12-.135-.1-.2-.143-.112-.085-.17-.128-.131-.1-.2-.154-.109-.09-.162-.131c-.066-.058-.131-.112-.2-.17-.05-.043-.1-.09-.151-.135-.066-.058-.128-.12-.194-.186-.046-.043-.093-.085-.135-.132-.069-.066-.135-.135-.2-.2a5.663 5.663 0 0 1-.329-.372l-.093-.1c-.09-.109-.175-.221-.26-.332a.182.182 0 0 1-.024-.032c-.1-.124-.186-.252-.276-.383s-.17-.26-.252-.391l-.054-.093c-.061-.1-.12-.2-.178-.31-.024-.043-.043-.085-.066-.128-.05-.1-.1-.189-.146-.287l-.069-.151c-.043-.09-.082-.181-.124-.274-.033-.069-.051-.128-.075-.178-.039-.09-.074-.181-.109-.271-.014-.058-.038-.117-.061-.179a9.368 9.368 0 0 1-.09-.268l-.058-.189c-.027-.085-.05-.175-.074-.263a3.246 3.246 0 0 1-.05-.2 5.152 5.152 0 0 1-.061-.263c-.016-.069-.027-.139-.043-.209l-.047-.263c-.015-.088-.024-.145-.03-.217s-.024-.167-.035-.255-.016-.151-.024-.228c0-.039-.008-.074-.011-.112-.017-.26-.03-.523-.03-.786V9.836A9.835 9.835 0 0 1 6.455.6c.146-.054.3-.1.457-.154A9.827 9.827 0 0 1 9.833 0h45.942A9.864 9.864 0 0 1 58.7.441c.154.05.306.1.457.154a9.891 9.891 0 0 1 4.207 2.983 9.779 9.779 0 0 1 2.244 6.258Z" fill="#269ef2"/><path data-name="パス 223" d="m57.418 66.317-.022.009a5.154 5.154 0 0 1-.389.153c-.025.006-.052.019-.077.025a5.163 5.163 0 0 1-.408.12c-.009 0-.022 0-.028.009a5.588 5.588 0 0 1-.4.083c-.025 0-.049.006-.077.013a4.523 4.523 0 0 1-.421.052.883.883 0 0 0-.088.009c-.15.009-.295.019-.447.019h-8.377c-.019-.11-.046-.221-.068-.331L45.4 61.119c1.662.751 4.654 2.037 8.918 3.867 1.021.435 2.063.88 3.1 1.328Z" fill="#fff"/><path data-name="パス 224" d="M60.984 14.867v5.251a3.857 3.857 0 0 0-1.7-.452h-.112c-.1 0-.189 0-.287.011a3.755 3.755 0 0 0-1.312.332C51.094 22.777 47 24.595 44.716 25.726a.744.744 0 0 1-.2.024 311.71 311.71 0 0 1-4.393.027c-1.277 0-2.64 0-4.423-.016h-.131a18.369 18.369 0 0 0-6.2 1.018 17.483 17.483 0 0 0-10.035 9.265 17.17 17.17 0 0 0-.356 13.583 17.511 17.511 0 0 0 5.355 7.3l2.237 9.887H10.556c-.151 0-.3-.008-.449-.019-.027 0-.058 0-.085-.008a5.302 5.302 0 0 1-.425-.054l-.074-.011a4.645 4.645 0 0 1-.4-.085.307.307 0 0 1-.032-.008 6.913 6.913 0 0 1-.41-.12c-.027-.008-.05-.019-.077-.027-.131-.047-.263-.1-.391-.151l-.05-.024a5.525 5.525 0 0 1-.364-.175.1.1 0 0 0-.039-.019 9.36 9.36 0 0 1-.364-.213.632.632 0 0 0-.058-.039 7.409 7.409 0 0 1-.353-.244.04.04 0 0 0-.016-.011 7.366 7.366 0 0 1-.324-.271l-.035-.027c-.1-.1-.209-.194-.306-.3a.187.187 0 0 1-.039-.039 5.987 5.987 0 0 1-.561-.68.139.139 0 0 0-.019-.027 7.411 7.411 0 0 1-.239-.375.159.159 0 0 1-.011-.024 5.838 5.838 0 0 1-.4-.824s0-.011-.008-.016a5.7 5.7 0 0 1-.151-.446 5.874 5.874 0 0 1-.247-1.7v-46.01h56.353Z" fill="#fff"/><circle data-name="楕円形 14" cx="2.616" cy="2.616" r="2.616" transform="translate(37.61 5.369)" fill="#fff"/><circle data-name="楕円形 15" cx="2.616" cy="2.616" r="2.616" transform="translate(45.37 5.369)" fill="#fff"/><circle data-name="楕円形 16" cx="2.616" cy="2.616" r="2.616" transform="translate(53.13 5.369)" fill="#fff"/><rect data-name="長方形 142" width="16.664" height="3.798" rx=".773" transform="translate(8.25 6.088)" fill="#fff"/><path data-name="パス 225" d="M59.13 23.639a50.015 50.015 0 0 0-3.645 19.614 50.083 50.083 0 0 0 3.624 19.575c-5.683-2.44-11.556-4.933-13.016-5.653a6.656 6.656 0 0 0-1.221-.29 68.684 68.684 0 0 1-4.4-.044l2.37 10.493A5.107 5.107 0 0 1 39 73.424l-1.665.378a5.105 5.105 0 0 1-6.089-3.846l-3.459-15.3a13.648 13.648 0 0 1 2.867-24.229 14.653 14.653 0 0 1 5.021-.8c2.969.019 5.938.03 8.9-.009a4.359 4.359 0 0 0 1.8-.4c2.674-1.328 7.942-3.615 12.8-5.688-.014.035-.03.069-.044.1Z" fill="#6fc0f8"/><path data-name="パス 226" d="M80.809 43.253c0 13.629-4.869 24.67-10.874 24.67-4.325 0-8.063-5.727-9.813-14.024a6.4 6.4 0 0 0 1.567.191 10.833 10.833 0 0 0 0-21.667 6.4 6.4 0 0 0-1.567.191c1.748-8.3 5.486-14.031 9.813-14.031 6.006 0 10.874 11.046 10.874 24.67Z" fill="#f092f9"/><path data-name="パス 227" d="M69.091 43.253a7.425 7.425 0 0 1-7.4 7.408 3.134 3.134 0 0 1-2.233-.936 55.768 55.768 0 0 1 0-12.938 3.136 3.136 0 0 1 2.233-.936 7.427 7.427 0 0 1 7.4 7.4Z" fill="url(#b)"/><path data-name="パス 228" d="M97.3 45.9h-4.207a2.695 2.695 0 0 1 0-5.39H97.3a2.695 2.695 0 1 1 0 5.39Z" fill="url(#b)"/><path data-name="パス 229" d="M86.728 71.909a2.681 2.681 0 0 1-1.9-.789L81.705 68a2.694 2.694 0 0 1 3.81-3.81l3.119 3.119a2.694 2.694 0 0 1-1.9 4.6Z" fill="url(#b)"/><path data-name="パス 230" d="M83.766 23.732a2.694 2.694 0 0 1-1.9-4.6l3.119-3.119a2.694 2.694 0 1 1 3.81 3.81l-3.119 3.119a2.686 2.686 0 0 1-1.9.789Z" fill="url(#b)"/></g></g></svg>