<svg xmlns="http://www.w3.org/2000/svg" width="100" height="100"><defs><linearGradient id="b" x1=".5" x2=".5" y2="1" gradientUnits="objectBoundingBox"><stop offset="0" stop-color="#f092f9"/><stop offset="1" stop-color="#f5596f"/></linearGradient><clipPath id="a"><path data-name="長方形 141" transform="translate(138 68)" fill="#dfdfdf" d="M0 0h100v100H0z"/></clipPath></defs><g data-name="マスクグループ 4" transform="translate(-138 -68)" clip-path="url(#a)"><g transform="translate(138 73.286)"><path data-name="パス 231" d="M61.786 18.837 57.219 21.4C52.533 13.873 44.394 9.71 36.5 11.608c-10.294 2.48-16.263 14.341-13.335 26.5a25.338 25.338 0 0 0 6.863 12.262 13.518 13.518 0 0 0-3.847 5.547A13.5 13.5 0 0 0 10.087 47.5 40.805 40.805 0 0 1 8 41.166C3.527 22.6 12.64 4.487 28.359.7c13.128-3.161 26.7 4.665 33.429 18.139Z" fill="#269ef2"/><path data-name="パス 232" d="M64.68 47.074c-.164 0-.334-.009-.5-.009a13.448 13.448 0 0 0-7.617 2.358 23.3 23.3 0 0 0 4.493-16.693l4.516-2a38.558 38.558 0 0 1-.892 16.344Z" fill="#269ef2"/><path data-name="パス 233" d="M56.563 49.423a17.954 17.954 0 0 1-3.4 3.337 16.575 16.575 0 0 1-2.37 1.485A13.489 13.489 0 0 0 30.03 50.37a25.346 25.346 0 0 1-6.863-12.262c-2.928-12.156 3.043-24.02 13.333-26.5 7.9-1.898 16.035 2.265 20.72 9.792l-4.277 2.4-7.818 4.378a2.275 2.275 0 0 0-.212.13c-.07.043-.137.091-.2.137a4.024 4.024 0 0 0-.382.3 2.841 2.841 0 0 0-.231.221 4.409 4.409 0 0 0-.382.436c-.058.075-.115.149-.164.228s-.122.181-.176.276c-.027.051-.058.1-.087.157-.021.036-.039.075-.058.115s-.051.1-.075.157-.043.094-.063.145a.98.98 0 0 0-.043.106 1.329 1.329 0 0 0-.07.2c-.019.051-.039.1-.055.161a.081.081 0 0 0-.009.031c-.031.1-.055.2-.079.3a4.752 4.752 0 0 0-.125 1.124v.14c0 .144.01.286.027.43a4.069 4.069 0 0 0 .091.522c.012.051.024.106.039.157a3.979 3.979 0 0 0 .145.483 5.314 5.314 0 0 0 .24.561l.291.585c.036.067.067.133.106.2l.094.164a1.048 1.048 0 0 0 .063.1c.039.058.079.118.118.173a.228.228 0 0 0 .048.067 1.6 1.6 0 0 0 .137.188 5.253 5.253 0 0 0 .7.719c.079.067.157.13.236.188s.133.1.2.145a2.648 2.648 0 0 0 .3.188c.087.051.173.1.264.145a2.526 2.526 0 0 0 .27.125 6.219 6.219 0 0 0 .561.204 4.954 4.954 0 0 0 1.355.2c.164 0 .327-.009.488-.024a3.77 3.77 0 0 0 .479-.075c.157-.036.31-.075.464-.125s.306-.106.455-.173l6.993-3.1 4.171-1.852a23.3 23.3 0 0 1-4.492 16.693Z" fill="#fff"/><path data-name="パス 234" d="M56.887 34.584c-.255 5.2-3.324 9.63-7.924 10.736-5.807 1.4-11.855-3.024-13.506-9.88s1.717-13.547 7.523-14.946a10.448 10.448 0 0 1 9.964 3.3l-7.816 4.379a4.908 4.908 0 0 0-1.869 6.52l.293.587a5.055 5.055 0 0 0 4.456 2.807 4.653 4.653 0 0 0 1.884-.4l6.994-3.1Z" fill="#269ef2"/><path data-name="パス 235" d="m79.178 6.637-2.264 6.808-30.47 17.078a2.241 2.241 0 0 0-.779 2.968l.293.585a2.241 2.241 0 0 0 2.842 1.153l31.925-14.175 6.808 2.264a1.284 1.284 0 0 0 .981-.07l10.777-5.4a1.285 1.285 0 0 0-.169-2.369l-8.86-2.947a1.285 1.285 0 0 1-.815-1.626l2.947-8.86A1.285 1.285 0 0 0 90.6.495l-10.777 5.4a1.286 1.286 0 0 0-.643.744Z" fill="url(#b)"/><path data-name="パス 236" d="M21.93 83.425a6.119 6.119 0 0 0 1.343 3.4 19.981 19.981 0 0 1-9.773 2.604A19.993 19.993 0 0 1 .857 84.851a2.541 2.541 0 0 1-.8-1.658c-.262-4.018.323-7.843 3.05-11.028a27.817 27.817 0 0 1 2.14-2.145 14.028 14.028 0 0 0 16.5 0 27.455 27.455 0 0 1 2.136 2.144c.062.07.123.144.18.214a19.365 19.365 0 0 0-2.133 11.046Z" fill="#6fc0f8"/><circle data-name="楕円形 17" cx="9.192" cy="9.192" r="9.192" transform="rotate(-76.72 43.81 32.167)" fill="#6fc0f8"/><path data-name="パス 237" d="M52.31 83.194a2.565 2.565 0 0 1-.8 1.66 19.756 19.756 0 0 1-25.284 0 2.565 2.565 0 0 1-.8-1.66c-.264-4.018.327-7.843 3.053-11.03a29.031 29.031 0 0 1 2.136-2.144 14.038 14.038 0 0 0 16.5 0 29.031 29.031 0 0 1 2.136 2.144c2.726 3.188 3.317 7.012 3.053 11.03Z" fill="url(#b)"/><circle data-name="楕円形 18" cx="9.192" cy="9.192" r="9.192" transform="rotate(-45 86.065 -.933)" fill="url(#b)"/><path data-name="パス 238" d="M77.624 83.193a2.561 2.561 0 0 1-.8 1.658 19.7 19.7 0 0 1-22.382 1.992 6.074 6.074 0 0 0 1.358-3.418 19.338 19.338 0 0 0-2.158-11.085c.043-.056.1-.118.144-.175a28.106 28.106 0 0 1 2.139-2.144 14.028 14.028 0 0 0 16.5 0 27.454 27.454 0 0 1 2.136 2.144c2.726 3.187 3.317 7.012 3.055 11.028Z" fill="#6fc0f8"/><circle data-name="楕円形 19" cx="9.192" cy="9.192" r="9.192" transform="rotate(-76.72 69.15 .148)" fill="#6fc0f8"/><path data-name="パス 239" d="M53.168 52.761a17.9 17.9 0 0 0 3.4-3.337 13.617 13.617 0 0 0-3.4 3.337Z" fill="#fff"/></g></g></svg>