<svg xmlns="http://www.w3.org/2000/svg" width="114.187" height="84.493"><defs><linearGradient id="a" x1=".5" x2=".5" y2="1" gradientUnits="objectBoundingBox"><stop offset="0" stop-color="#f092f9"/><stop offset="1" stop-color="#f5596f"/></linearGradient></defs><g transform="translate(6.157 4.928)"><path data-name="パス 248" d="M86.959 19.762V31.94a1.961 1.961 0 1 1-3.922 0V19.762a6.424 6.424 0 0 0-6.416-6.416H69.2a18.112 18.112 0 0 0-.633-3.922h8.054a10.35 10.35 0 0 1 10.338 10.338Z" fill="#6fc0f8"/><path data-name="パス 249" d="M33.302 9.425a18.1 18.1 0 0 0-.633 3.922h-7.418a6.424 6.424 0 0 0-6.416 6.416V31.94a1.961 1.961 0 0 1-3.922 0V19.762A10.35 10.35 0 0 1 25.25 9.425h8.051Z" fill="#6fc0f8"/><circle data-name="楕円形 21" cx="13.584" cy="13.584" r="13.584" transform="rotate(-45 33.104 -31.154)" fill="#269ef2"/><path data-name="パス 250" d="M61.824 55.562c0 .437.014.868.039 1.3H40.006c.026-.429.039-.86.039-1.3a22.188 22.188 0 0 0-9.98-18.529 15.281 15.281 0 0 1 7.4-8.7 17.473 17.473 0 0 0 26.956 0 15.3 15.3 0 0 1 7.393 8.7 22.2 22.2 0 0 0-9.984 18.528Z" fill="#269ef2"/><circle data-name="楕円形 22" cx="16.972" cy="16.972" r="16.972" transform="rotate(-45 63.99 35.213)" fill="url(#a)"/><circle data-name="楕円形 23" cx="16.972" cy="16.972" r="16.972" transform="rotate(-45 97.08 -44.676)" fill="url(#a)"/><path data-name="パス 251" d="M12.703 62.388a1.7 1.7 0 0 1-1.2-2.9l10.282-10.284a1.7 1.7 0 0 1 2.4 2.4L13.905 61.89a1.693 1.693 0 0 1-1.2.5Z" fill="#fff"/><path data-name="パス 252" d="M22.986 62.388a1.693 1.693 0 0 1-1.2-.5L11.502 51.607a1.7 1.7 0 0 1 2.4-2.4l10.286 10.279a1.7 1.7 0 0 1-1.2 2.9Z" fill="#fff"/><path data-name="パス 253" d="M81.998 62.347a1.7 1.7 0 0 1-1.117-.419l-4.577-3.992a1.7 1.7 0 1 1 2.234-2.561l3.365 2.935 8.046-8.253a1.7 1.7 0 1 1 2.434 2.371l-9.167 9.4a1.7 1.7 0 0 1-1.216.513Z" fill="#fff"/></g></svg>